<svg id="Capa_1" enable-background="new 0 0 497 497" height="512" viewBox="0 0 497 497" width="512" xmlns="http://www.w3.org/2000/svg"><g><g><path d="m472.931 346.257h-448.862c-4.142 0-7.5-3.358-7.5-7.5v-312.89c0-4.142 3.358-7.5 7.5-7.5h448.861c4.142 0 7.5 3.358 7.5 7.5v312.89c.001 4.142-3.357 7.5-7.499 7.5zm-441.362-15h433.861v-297.89h-433.861z" fill="#edf5fa"/></g><path d="m482 49.936h-28.138c-2.762 0-5-2.238-5-5v-38.138c0-2.761 2.238-5 5-5h28.138c2.761 0 5 2.239 5 5v38.138c0 2.762-2.239 5-5 5z" fill="#fee97d"/><path d="m492 1.798h-19c2.761 0 5 2.239 5 5v38.138c0 2.761-2.239 5-5 5h19c2.761 0 5-2.239 5-5v-38.138c0-2.762-2.239-5-5-5z" fill="#fedf30"/><path d="m33.138 49.936h-28.138c-2.761 0-5-2.238-5-5v-38.138c0-2.761 2.239-5 5-5h28.138c2.762 0 5 2.239 5 5v38.138c0 2.762-2.238 5-5 5z" fill="#fee97d"/><path d="m43.138 1.798h-19c2.762 0 5 2.239 5 5v38.138c0 2.761-2.238 5-5 5h19c2.762 0 5-2.239 5-5v-38.138c0-2.762-2.238-5-5-5z" fill="#fedf30"/><path d="m482 362.826h-28.138c-2.762 0-5-2.239-5-5v-38.138c0-2.762 2.238-5 5-5h28.138c2.761 0 5 2.238 5 5v38.138c0 2.762-2.239 5-5 5z" fill="#fee97d"/><path d="m492 314.688h-19c2.761 0 5 2.238 5 5v38.138c0 2.761-2.239 5-5 5h19c2.761 0 5-2.239 5-5v-38.138c0-2.761-2.239-5-5-5z" fill="#fedf30"/><path d="m33.138 362.826h-28.138c-2.761 0-5-2.239-5-5v-38.138c0-2.762 2.239-5 5-5h28.138c2.762 0 5 2.238 5 5v38.138c0 2.762-2.238 5-5 5z" fill="#fee97d"/><path d="m43.138 314.688h-19c2.762 0 5 2.238 5 5v38.138c0 2.761-2.238 5-5 5h19c2.762 0 5-2.239 5-5v-38.138c0-2.761-2.238-5-5-5z" fill="#fedf30"/><path d="m275.163 430.216 10.247-1.261c4.584 0 7.216 5.217 4.492 8.903l-36.909 52.555c-2.233 3.022-6.752 3.022-8.984 0l-5.594-5.05-35.098-47.505c-2.724-3.687-.092-8.903 4.492-8.903h12.768v-180.396h-12.768c-4.583 0-7.215-5.217-4.492-8.903l35.098-47.505 5.594-5.05c2.232-3.022 6.751-3.022 8.984 0l36.909 51.295c2.724 3.686.092 8.904-4.492 8.904h-10.247z" fill="#e592b8"/><path d="m289.192 428.956h-12.768v-180.397h12.768c4.583 0 7.215-5.217 4.492-8.903l-40.692-55.077c-2.233-3.022-6.752-3.022-8.984 0l-5.594 7.572 35.098 47.505c2.724 3.687.092 8.903-4.492 8.903h-6.464c-3.482 0-6.304 2.822-6.304 6.304v167.789c0 3.481 2.822 6.304 6.304 6.304h6.464c4.584 0 7.216 5.217 4.492 8.904l-35.098 47.505 5.594 7.572c2.232 3.022 6.751 3.022 8.984 0l40.692-55.077c2.723-3.688.091-8.904-4.492-8.904z" fill="#e175a5"/></g></svg>